<svg width="18" height="18" viewBox="0 0 18 18" fill="none" xmlns="http://www.w3.org/2000/svg">
<path d="M1 15V5.5C1 4.30653 1.47411 3.16193 2.31802 2.31802C3.16193 1.47411 4.30653 1 5.5 1H12.5C13.0909 1 13.6761 1.1164 14.2221 1.34254C14.768 1.56869 15.2641 1.90016 15.682 2.31802C16.0998 2.73588 16.4313 3.23196 16.6575 3.77792C16.8836 4.32389 17 4.90905 17 5.5V12.5C17 13.0909 16.8836 13.6761 16.6575 14.2221C16.4313 14.768 16.0998 15.2641 15.682 15.682C15.2641 16.0998 14.768 16.4313 14.2221 16.6575C13.6761 16.8836 13.0909 17 12.5 17H3C2.46957 17 1.96086 16.7893 1.58579 16.4142C1.21071 16.0391 1 15.5304 1 15Z" stroke="#3E3F5E" stroke-width="2" stroke-linecap="round" stroke-linejoin="round"/>
<path d="M5 9H8.5C9.03043 9 9.53914 9.21071 9.91421 9.58579C10.2893 9.96086 10.5 10.4696 10.5 11C10.5 11.5304 10.2893 12.0391 9.91421 12.4142C9.53914 12.7893 9.03043 13 8.5 13H5V6C5 5.73478 5.10536 5.48043 5.29289 5.29289C5.48043 5.10536 5.73478 5 6 5H7.5C8.03043 5 8.53914 5.21071 8.91421 5.58579C9.28929 5.96086 9.5 6.46957 9.5 7C9.5 7.53043 9.28929 8.03914 8.91421 8.41421C8.53914 8.78929 8.03043 9 7.5 9H6M13 13H13.01" stroke="#3E3F5E" stroke-width="2" stroke-linecap="round" stroke-linejoin="round"/>
</svg>
