<svg width="24" height="24" viewBox="0 0 24 24" fill="none" xmlns="http://www.w3.org/2000/svg">
<path d="M13.5 4.5C13.5 4.10218 13.658 3.72064 13.9393 3.43934C14.2206 3.15804 14.6022 3 15 3H19.5C19.8978 3 20.2794 3.15804 20.5607 3.43934C20.842 3.72064 21 4.10218 21 4.5V17.25C21 18.2446 20.6049 19.1984 19.9016 19.9016C19.1984 20.6049 18.2446 21 17.25 21H3C2.60218 21 2.22064 20.842 1.93934 20.5607C1.65804 20.2794 1.5 19.8978 1.5 19.5V15C1.5 14.6022 1.65804 14.2206 1.93934 13.9393C2.22064 13.658 2.60218 13.5 3 13.5H7.5V10.5C7.5 10.1022 7.65804 9.72064 7.93934 9.43934C8.22064 9.15804 8.60218 9 9 9H13.5V4.5Z" fill="#3DB3FB"/>
</svg>
