<svg width="15" height="15" viewBox="0 0 15 15" fill="none" xmlns="http://www.w3.org/2000/svg">
<path fill-rule="evenodd" clip-rule="evenodd" d="M11.5243 4.50873C11.7077 4.35603 11.9441 4.28239 12.1818 4.30399C12.4194 4.32559 12.6387 4.44067 12.7915 4.62393L14.6662 6.87393C14.8123 7.05799 14.8805 7.29185 14.8565 7.52557C14.8324 7.75929 14.7179 7.97432 14.5374 8.12474C14.3569 8.27515 14.1247 8.34902 13.8905 8.33055C13.6562 8.31209 13.4385 8.20277 13.2838 8.02593L11.4091 5.77593C11.2564 5.59259 11.1828 5.35611 11.2044 5.11848C11.226 4.88086 11.3411 4.66153 11.5243 4.50873Z" fill="#EF3E36"/>
<path fill-rule="evenodd" clip-rule="evenodd" d="M11.5244 10.391C11.341 10.2383 11.2257 10.0191 11.204 9.78143C11.1822 9.5438 11.2557 9.30726 11.4083 9.1238L13.2839 6.8738C13.3585 6.77979 13.4511 6.70164 13.5563 6.64397C13.6616 6.58629 13.7773 6.55024 13.8967 6.53794C14.016 6.52564 14.1367 6.53734 14.2515 6.57235C14.3662 6.60736 14.4729 6.66498 14.5651 6.7418C14.6572 6.81863 14.7331 6.91312 14.7883 7.01971C14.8434 7.1263 14.8767 7.24285 14.8861 7.36248C14.8955 7.48212 14.8809 7.60243 14.8432 7.71635C14.8054 7.83026 14.7453 7.93548 14.6663 8.0258L12.7916 10.2758C12.6388 10.4591 12.4194 10.5741 12.1818 10.5957C11.9442 10.6173 11.7077 10.5437 11.5244 10.391Z" fill="#EF3E36"/>
<path fill-rule="evenodd" clip-rule="evenodd" d="M13.7502 7.45C13.7502 7.68869 13.6554 7.91761 13.4866 8.0864C13.3178 8.25518 13.0889 8.35 12.8502 8.35H7.0002C6.7615 8.35 6.53258 8.25518 6.3638 8.0864C6.19502 7.91761 6.1002 7.68869 6.1002 7.45C6.1002 7.21131 6.19502 6.98239 6.3638 6.8136C6.53258 6.64482 6.7615 6.55 7.0002 6.55H12.8502C13.0889 6.55 13.3178 6.64482 13.4866 6.8136C13.6554 6.98239 13.7502 7.21131 13.7502 7.45ZM0.700195 1.15C0.700195 0.911305 0.795016 0.682387 0.963799 0.513604C1.13258 0.344821 1.3615 0.25 1.6002 0.25H9.7002C9.93889 0.25 10.1678 0.344821 10.3366 0.513604C10.5054 0.682387 10.6002 0.911305 10.6002 1.15C10.6002 1.38869 10.5054 1.61761 10.3366 1.7864C10.1678 1.95518 9.93889 2.05 9.7002 2.05H1.6002C1.3615 2.05 1.13258 1.95518 0.963799 1.7864C0.795016 1.61761 0.700195 1.38869 0.700195 1.15ZM0.700195 13.75C0.700195 13.5113 0.795016 13.2824 0.963799 13.1136C1.13258 12.9448 1.3615 12.85 1.6002 12.85H9.7002C9.93889 12.85 10.1678 12.9448 10.3366 13.1136C10.5054 13.2824 10.6002 13.5113 10.6002 13.75C10.6002 13.9887 10.5054 14.2176 10.3366 14.3864C10.1678 14.5552 9.93889 14.65 9.7002 14.65H1.6002C1.3615 14.65 1.13258 14.5552 0.963799 14.3864C0.795016 14.2176 0.700195 13.9887 0.700195 13.75Z" fill="#EF3E36"/>
<path fill-rule="evenodd" clip-rule="evenodd" d="M9.7002 0.25C9.93889 0.25 10.1678 0.344821 10.3366 0.513604C10.5054 0.682387 10.6002 0.911305 10.6002 1.15V4.75C10.6002 4.98869 10.5054 5.21761 10.3366 5.3864C10.1678 5.55518 9.93889 5.65 9.7002 5.65C9.4615 5.65 9.23258 5.55518 9.0638 5.3864C8.89502 5.21761 8.80019 4.98869 8.80019 4.75V1.15C8.80019 0.911305 8.89502 0.682387 9.0638 0.513604C9.23258 0.344821 9.4615 0.25 9.7002 0.25ZM9.7002 9.25C9.93889 9.25 10.1678 9.34482 10.3366 9.5136C10.5054 9.68239 10.6002 9.9113 10.6002 10.15V13.75C10.6002 13.9887 10.5054 14.2176 10.3366 14.3864C10.1678 14.5552 9.93889 14.65 9.7002 14.65C9.4615 14.65 9.23258 14.5552 9.0638 14.3864C8.89502 14.2176 8.80019 13.9887 8.80019 13.75V10.15C8.80019 9.9113 8.89502 9.68239 9.0638 9.5136C9.23258 9.34482 9.4615 9.25 9.7002 9.25ZM1.6002 0.25C1.83889 0.25 2.06781 0.344821 2.23659 0.513604C2.40537 0.682387 2.5002 0.911305 2.5002 1.15V13.75C2.5002 13.9887 2.40537 14.2176 2.23659 14.3864C2.06781 14.5552 1.83889 14.65 1.6002 14.65C1.3615 14.65 1.13258 14.5552 0.963799 14.3864C0.795016 14.2176 0.700195 13.9887 0.700195 13.75V1.15C0.700195 0.911305 0.795016 0.682387 0.963799 0.513604C1.13258 0.344821 1.3615 0.25 1.6002 0.25Z" fill="#EF3E36"/>
</svg>
