<svg width="18" height="19" viewBox="0 0 18 19" fill="none" xmlns="http://www.w3.org/2000/svg">
<path d="M2 18.5C1.45 18.5 0.979333 18.3043 0.588 17.913C0.196667 17.5217 0.000666667 17.0507 0 16.5V2.5C0 1.95 0.196 1.47933 0.588 1.088C0.98 0.696667 1.45067 0.500667 2 0.5H16C16.55 0.5 17.021 0.696 17.413 1.088C17.805 1.48 18.0007 1.95067 18 2.5V16.5C18 17.05 17.8043 17.521 17.413 17.913C17.0217 18.305 16.5507 18.5007 16 18.5H2ZM3 14.5H15L11.25 9.5L8.25 13.5L6 10.5L3 14.5Z" fill="#3E3F5E"/>
</svg>
