<svg width="18" height="18" viewBox="0 0 18 18" fill="none" xmlns="http://www.w3.org/2000/svg">
<path d="M15.1409 8.2005C15.4319 8.5545 15.5774 8.73075 15.5774 9C15.5774 9.26925 15.4319 9.4455 15.1409 9.7995C14.0759 11.0925 11.7269 13.5 8.99986 13.5C6.27286 13.5 3.92386 11.0925 2.85886 9.7995C2.56786 9.4455 2.42236 9.26925 2.42236 9C2.42236 8.73075 2.56786 8.5545 2.85886 8.2005C3.92386 6.9075 6.27286 4.5 8.99986 4.5C11.7269 4.5 14.0759 6.9075 15.1409 8.2005Z" fill="#3DB3FB"/>
<path d="M9 11.25C10.2426 11.25 11.25 10.2426 11.25 9C11.25 7.75736 10.2426 6.75 9 6.75C7.75736 6.75 6.75 7.75736 6.75 9C6.75 10.2426 7.75736 11.25 9 11.25Z" fill="white"/>
</svg>
