<svg width="15" height="4" viewBox="0 0 15 4" fill="none" xmlns="http://www.w3.org/2000/svg">
<path d="M12.5062 3.55587C12.3018 3.55594 12.0994 3.51574 11.9105 3.43758C11.7217 3.35942 11.55 3.24482 11.4055 3.10034C11.2609 2.95585 11.1462 2.7843 11.0679 2.59548C10.9896 2.40666 10.9493 2.20427 10.9492 1.99987C10.9492 1.79547 10.9893 1.59305 11.0675 1.40419C11.1457 1.21532 11.2603 1.04369 11.4048 0.899113C11.5492 0.754532 11.7208 0.639827 11.9096 0.561545C12.0984 0.483262 12.3008 0.442937 12.5052 0.442871C12.918 0.442739 13.314 0.6066 13.606 0.898406C13.898 1.19021 14.0621 1.58606 14.0622 1.99887C14.0624 2.41168 13.8985 2.80764 13.6067 3.09963C13.3149 3.39162 12.919 3.55574 12.5062 3.55587Z" fill="black" fill-opacity="0.5"/>
<path d="M7.1644 3.55585C8.02375 3.55585 8.7204 2.8592 8.7204 1.99985C8.7204 1.14049 8.02375 0.443848 7.1644 0.443848C6.30504 0.443848 5.6084 1.14049 5.6084 1.99985C5.6084 2.8592 6.30504 3.55585 7.1644 3.55585Z" fill="black" fill-opacity="0.5"/>
<path d="M1.82162 3.55585C2.68098 3.55585 3.37762 2.8592 3.37762 1.99985C3.37762 1.14049 2.68098 0.443848 1.82162 0.443848C0.96227 0.443848 0.265625 1.14049 0.265625 1.99985C0.265625 2.8592 0.96227 3.55585 1.82162 3.55585Z" fill="black" fill-opacity="0.5"/>
</svg>
