<svg width="20" height="20" viewBox="0 0 20 20" fill="none" xmlns="http://www.w3.org/2000/svg">
<g clip-path="url(#clip0_120_132)">
<path d="M6.66667 8.96664H6.18334C5.52376 8.94281 4.86632 9.05478 4.25181 9.29561C3.63731 9.53644 3.07886 9.90099 2.61112 10.3666L2.47778 10.5222V15.1222H4.74445V12.5111L5.05001 12.1666L5.18889 12.0055C5.91219 11.2625 6.81266 10.7157 7.80556 10.4166C7.30862 10.0382 6.9166 9.53909 6.66667 8.96664Z" fill="#3DB3FB"/>
<path d="M17.4111 10.35C16.9433 9.88439 16.3849 9.51984 15.7704 9.27901C15.1559 9.03818 14.4984 8.9262 13.8389 8.95004C13.6366 8.95112 13.4345 8.96225 13.2333 8.98338C12.9787 9.52042 12.5974 9.98754 12.1222 10.3445C13.1823 10.6375 14.1426 11.2136 14.9 12.0112L15.0389 12.1667L15.3389 12.5112V15.1278H17.5277V10.5056L17.4111 10.35Z" fill="#3DB3FB"/>
<path d="M6.16668 7.88331H6.3389C6.25888 7.19622 6.37944 6.50066 6.68603 5.88058C6.99262 5.2605 7.47213 4.74242 8.06668 4.38886C7.85116 4.05961 7.55382 3.79198 7.20379 3.61217C6.85376 3.43235 6.46303 3.34653 6.06986 3.3631C5.6767 3.37967 5.29457 3.49806 4.96091 3.70668C4.62725 3.91531 4.35348 4.20701 4.16643 4.55322C3.97938 4.89944 3.88544 5.2883 3.89383 5.68172C3.90221 6.07515 4.01263 6.45965 4.21426 6.79759C4.4159 7.13552 4.70184 7.41529 5.04409 7.60951C5.38634 7.80372 5.77316 7.90573 6.16668 7.90553V7.88331Z" fill="#3DB3FB"/>
<path d="M13.5722 7.46666C13.5785 7.59436 13.5785 7.72229 13.5722 7.84999C13.6788 7.86706 13.7865 7.87635 13.8944 7.87777H14C14.3917 7.85688 14.7714 7.7349 15.1021 7.5237C15.4327 7.31251 15.7031 7.01929 15.8868 6.67261C16.0705 6.32593 16.1613 5.93759 16.1503 5.5454C16.1394 5.15321 16.0271 4.77053 15.8243 4.43463C15.6216 4.09873 15.3353 3.82105 14.9934 3.62862C14.6515 3.43619 14.2656 3.33557 13.8733 3.33656C13.4809 3.33754 13.0955 3.4401 12.7546 3.63425C12.4136 3.8284 12.1288 4.10752 11.9277 4.44444C12.4306 4.77273 12.844 5.22072 13.131 5.7482C13.418 6.27568 13.5696 6.86615 13.5722 7.46666Z" fill="#3DB3FB"/>
<path d="M9.92779 9.95556C11.2993 9.95556 12.4111 8.84373 12.4111 7.47223C12.4111 6.10072 11.2993 4.98889 9.92779 4.98889C8.55628 4.98889 7.44446 6.10072 7.44446 7.47223C7.44446 8.84373 8.55628 9.95556 9.92779 9.95556Z" fill="#3DB3FB"/>
<path d="M10.0611 11.2778C9.33556 11.2488 8.61169 11.3668 7.93292 11.6245C7.25414 11.8823 6.63445 12.2746 6.11106 12.7778L5.97217 12.9334V16.45C5.97434 16.5646 5.99905 16.6776 6.0449 16.7826C6.09075 16.8876 6.15683 16.9825 6.23938 17.0619C6.32192 17.1414 6.41931 17.2038 6.52598 17.2456C6.63265 17.2874 6.74651 17.3078 6.86106 17.3056H13.2444C13.3589 17.3078 13.4728 17.2874 13.5795 17.2456C13.6861 17.2038 13.7835 17.1414 13.8661 17.0619C13.9486 16.9825 14.0147 16.8876 14.0605 16.7826C14.1064 16.6776 14.1311 16.5646 14.1333 16.45V12.9445L13.9999 12.7778C13.4801 12.2728 12.8626 11.8792 12.1853 11.6213C11.508 11.3633 10.7851 11.2465 10.0611 11.2778Z" fill="#3DB3FB"/>
</g>
<defs>
<clipPath id="clip0_120_132">
<rect width="20" height="20" fill="white"/>
</clipPath>
</defs>
</svg>
