<svg width="21" height="20" viewBox="0 0 21 20" fill="none" xmlns="http://www.w3.org/2000/svg">
<path d="M3 17.5H4.66667V12.5H3V17.5ZM10.8833 18.3334L8.44167 17.8L6 17.225C5.85868 17.1975 5.73171 17.1207 5.64167 17.0084C5.54786 16.8997 5.49742 16.7602 5.5 16.6167V13.2834C5.50236 13.1407 5.55221 13.0029 5.64167 12.8917C5.73474 12.7829 5.86038 12.7069 6 12.675L9.98333 12.1834L13.975 11.6834L14.1 12.15L14.225 12.6084C14.2272 12.762 14.1837 12.9128 14.1 13.0417C14.0234 13.1765 13.907 13.2842 13.7667 13.35L12.1 13.7667L10.4333 14.1834L11.7833 14.7334L13.1417 15.275L15.0333 14.7417L16.875 14.1667C17.0387 14.1253 17.212 14.1492 17.3583 14.2334C17.432 14.2732 17.4967 14.3278 17.5483 14.3937C17.6 14.4597 17.6374 14.5356 17.6583 14.6167L17.8167 15.2584L17.9833 15.8917C18.0211 16.0501 17.9973 16.2169 17.9167 16.3584C17.831 16.5011 17.6937 16.6055 17.5333 16.65L14.5083 17.4834L11.4833 18.3167C11.3837 18.3296 11.2829 18.3296 11.1833 18.3167C11.0849 18.3387 10.9836 18.3444 10.8833 18.3334ZM8 3.33337L6.33333 5.00004L4.66667 6.66671L6.33333 8.33337L8 10L8.58333 9.41671L9.16667 8.83337L8.08333 7.75004L7 6.66671L8.08333 5.58337L9.16667 4.50004L8.58333 3.91671L8 3.33337ZM13 3.33337L12.4167 3.91671L11.8333 4.50004L12.9167 5.58337L14 6.66671L12.9167 7.75004L11.8333 8.83337L12.4167 9.41671L13 10L14.6667 8.33337L16.3333 6.66671L14.6667 5.00004L13 3.33337Z" fill="#3DB3FB"/>
</svg>
