<svg width="16" height="16" viewBox="0 0 16 16" fill="none" xmlns="http://www.w3.org/2000/svg">
<path d="M8.00008 9.33366V14.667H2.66675C2.66675 13.2525 3.22865 11.896 4.22885 10.8958C5.22904 9.89556 6.58559 9.33366 8.00008 9.33366ZM8.00008 8.66699C5.79008 8.66699 4.00008 6.87699 4.00008 4.66699C4.00008 2.45699 5.79008 0.666992 8.00008 0.666992C10.2101 0.666992 12.0001 2.45699 12.0001 4.66699C12.0001 6.87699 10.2101 8.66699 8.00008 8.66699ZM14.0001 11.3337H14.6667V14.667H9.33342V11.3337H10.0001V10.667C10.0001 10.1366 10.2108 9.62785 10.5859 9.25278C10.9609 8.87771 11.4696 8.66699 12.0001 8.66699C12.5305 8.66699 13.0392 8.87771 13.4143 9.25278C13.7894 9.62785 14.0001 10.1366 14.0001 10.667V11.3337ZM12.6667 11.3337V10.667C12.6667 10.4902 12.5965 10.3206 12.4715 10.1956C12.3465 10.0706 12.1769 10.0003 12.0001 10.0003C11.8233 10.0003 11.6537 10.0706 11.5287 10.1956C11.4037 10.3206 11.3334 10.4902 11.3334 10.667V11.3337H12.6667Z" fill="#2BB673"/>
</svg>
