<svg width="16" height="16" viewBox="0 0 16 16" fill="none" xmlns="http://www.w3.org/2000/svg">
<g clip-path="url(#clip0_762_1328)">
<path d="M14 11.3344L10.3344 10.6687C10 10 10 9.70938 10 9.33438C10.3344 9 11 8.66875 11 8.33438C11.3344 7.33438 11.3344 6.66875 11.3344 6.66875C11.5063 6.41875 12 6.00312 12 5.33437C12 4.66563 11.3344 4 11.3344 3.66875C11.3344 1 9.975 0 8 0C6.10938 0 4.66563 1 4.66563 3.66563C4.66563 4 4 4.66563 4 5.33125C4 5.99688 4.475 6.4375 4.66563 6.66563C4.66563 6.66563 4.66563 7.33125 5 8.33125C5 8.66563 5.66563 8.99687 6 9.33125C6 9.66563 6 9.99687 5.66563 10.6656L2 11.3344C0.665625 11.6656 0 14 0 16H16C16 14 15.3344 11.6656 14 11.3344Z" fill="#3DB3FB"/>
</g>
<defs>
<clipPath id="clip0_762_1328">
<rect width="16" height="16" fill="white"/>
</clipPath>
</defs>
</svg>
