<svg width="16" height="16" viewBox="0 0 16 16" fill="none" xmlns="http://www.w3.org/2000/svg">
<g clip-path="url(#clip0_899_390)">
<path d="M15.4904 4.54966V12.5477C15.4854 12.6446 15.4575 12.7389 15.4089 12.8229C15.3604 12.907 15.2926 12.9783 15.2111 13.031L14.9491 13.1877C13.6418 13.9443 12.4911 14.6103 11.3284 15.281V6.63166L3.83977 2.30232C5.13577 1.55832 6.4271 0.806989 7.72443 0.0663223C7.81097 0.022715 7.90653 0 8.00343 0C8.10034 0 8.19589 0.022715 8.28243 0.0663223L15.4891 4.22832V4.54966H15.4904ZM9.6631 7.59099C7.95378 6.60264 6.244 5.61509 4.53377 4.62832C4.44708 4.58522 4.35158 4.56279 4.25477 4.56279C4.15795 4.56279 4.06245 4.58522 3.97577 4.62832C2.82021 5.29499 1.66488 5.96254 0.509766 6.63099L5.91843 9.75366V15.9997C7.0731 15.3337 8.2251 14.6623 9.3831 14.003C9.46412 13.9499 9.53159 13.8787 9.5801 13.7948C9.6286 13.711 9.6568 13.617 9.66243 13.5203L9.6631 7.59099ZM0.510432 12.8777L4.25243 15.0383V10.713L0.510432 12.8777Z" fill="#3E3F5E"/>
</g>
<defs>
<clipPath id="clip0_899_390">
<rect width="16" height="16" fill="white"/>
</clipPath>
</defs>
</svg>
