<svg width="14" height="20" viewBox="0 0 14 20" fill="none" xmlns="http://www.w3.org/2000/svg">
<path d="M11.3535 9.35349C11.4446 9.25919 11.495 9.13289 11.4938 9.00179C11.4927 8.87069 11.4401 8.74529 11.3474 8.65258C11.2547 8.55988 11.1293 8.50729 10.9982 8.50615C10.8671 8.50501 10.7408 8.55541 10.6465 8.64649L6.99999 12.293L5.35349 10.6465C5.25919 10.5554 5.13289 10.505 5.00179 10.5062C4.87069 10.5073 4.74529 10.5599 4.65258 10.6526C4.55988 10.7453 4.50729 10.8707 4.50615 11.0018C4.50501 11.1329 4.55541 11.2592 4.64649 11.3535L6.99999 13.707L11.3535 9.35349Z" fill="#3DB3FB"/>
<path fill-rule="evenodd" clip-rule="evenodd" d="M14 5.5V16C14 16.3978 13.842 16.7794 13.5607 17.0607C13.2793 17.342 12.8978 17.5 12.5 17.5H3.49999C3.10217 17.5 2.72064 17.342 2.43933 17.0607C2.15803 16.7794 1.99999 16.3978 1.99999 16V2C1.99999 1.60218 2.15803 1.22064 2.43933 0.93934C2.72064 0.658035 3.10217 0.5 3.49999 0.5H8.99999L14 5.5ZM8.99999 6C8.86738 6 8.74021 5.94732 8.64644 5.85355C8.55267 5.75979 8.49999 5.63261 8.49999 5.5V1.5H3.49999C3.36738 1.5 3.24021 1.55268 3.14644 1.64645C3.05267 1.74021 2.99999 1.86739 2.99999 2V16C2.99999 16.1326 3.05267 16.2598 3.14644 16.3536C3.24021 16.4473 3.36738 16.5 3.49999 16.5H12.5C12.6326 16.5 12.7598 16.4473 12.8535 16.3536C12.9473 16.2598 13 16.1326 13 16V6H8.99999ZM9.49999 2.414L12.086 5H9.49999V2.414Z" fill="#3DB3FB"/>
<path d="M0.999992 3.5V17C0.999992 17.3978 1.15803 17.7794 1.43933 18.0607C1.72064 18.342 2.10217 18.5 2.49999 18.5H12V19.5H2.49999C1.83695 19.5 1.20107 19.2366 0.732225 18.7678C0.263384 18.2989 -7.62939e-06 17.663 -7.62939e-06 17V3.5H0.999992Z" fill="#3DB3FB"/>
</svg>
