<svg width="19" height="15" viewBox="0 0 19 15" fill="none" xmlns="http://www.w3.org/2000/svg">
<path d="M2.00006 5.99997L1.29306 6.70697L0.58606 5.99997L1.29306 5.29297L2.00006 5.99997ZM19.0001 14C19.0001 14.2652 18.8947 14.5195 18.7072 14.7071C18.5196 14.8946 18.2653 15 18.0001 15C17.7348 15 17.4805 14.8946 17.293 14.7071C17.1054 14.5195 17.0001 14.2652 17.0001 14H19.0001ZM6.29306 11.707L1.29306 6.70697L2.70706 5.29297L7.70706 10.293L6.29306 11.707ZM1.29306 5.29297L6.29306 0.292969L7.70706 1.70697L2.70706 6.70697L1.29306 5.29297ZM2.00006 4.99997H12.0001V6.99997H2.00006V4.99997ZM19.0001 12V14H17.0001V12H19.0001ZM12.0001 4.99997C13.8566 4.99997 15.6371 5.73747 16.9498 7.05022C18.2626 8.36298 19.0001 10.1435 19.0001 12H17.0001C17.0001 10.6739 16.4733 9.40212 15.5356 8.46443C14.5979 7.52675 13.3261 6.99997 12.0001 6.99997V4.99997Z" fill="#EF3E36"/>
</svg>
