<svg width="19" height="15" viewBox="0 0 19 15" fill="none" xmlns="http://www.w3.org/2000/svg">
<path d="M17.2188 1.96875H13.9375V0.65625H5.73438V1.96875H2.45312C1.989 1.96875 1.54388 2.15312 1.21569 2.48131C0.887499 2.8095 0.703125 3.25462 0.703125 3.71875V12.7969C0.703125 13.261 0.887499 13.7061 1.21569 14.0343C1.54388 14.3625 1.989 14.5469 2.45312 14.5469H17.2188C17.6829 14.5469 18.128 14.3625 18.4562 14.0343C18.7844 13.7061 18.9688 13.261 18.9688 12.7969V3.71875C18.9688 3.25462 18.7844 2.8095 18.4562 2.48131C18.128 2.15312 17.6829 1.96875 17.2188 1.96875ZM9.8355 13.5625C6.91125 13.5625 4.533 11.1825 4.533 8.25825C4.533 5.334 6.91125 2.954 9.8355 2.954C12.7598 2.954 15.1398 5.334 15.1398 8.25825C15.1398 11.1825 12.7598 13.5607 9.8355 13.5607V13.5625ZM9.8355 4.70312C9.36858 4.70318 8.90624 4.79521 8.47488 4.97394C8.04352 5.15268 7.65159 5.41463 7.32147 5.74483C6.99134 6.07504 6.72949 6.46703 6.55086 6.89844C6.37223 7.32984 6.28032 7.7922 6.28037 8.25912C6.28043 8.72605 6.37246 9.18839 6.55119 9.61975C6.72993 10.0511 6.99188 10.443 7.32208 10.7732C7.65229 11.1033 8.04428 11.3651 8.47569 11.5438C8.90709 11.7224 9.36945 11.8143 9.83637 11.8143C10.7795 11.8141 11.6839 11.4394 12.3507 10.7724C13.0175 10.1055 13.3921 9.20092 13.3919 8.25781C13.3918 7.3147 13.0171 6.41027 12.3501 5.74347C11.6831 5.07667 10.7786 4.70213 9.8355 4.70225V4.70312Z" fill="#3DB3FB"/>
</svg>
