<svg width="16" height="20" viewBox="0 0 16 20" fill="none" xmlns="http://www.w3.org/2000/svg">
<path d="M13.753 12C14.0485 12 14.3411 12.0582 14.6141 12.1713C14.887 12.2843 15.1351 12.4501 15.344 12.659C15.553 12.8679 15.7187 13.116 15.8318 13.389C15.9448 13.6619 16.003 13.9545 16.003 14.25V15.155C16.003 15.6954 15.8862 16.2294 15.6606 16.7204C15.4351 17.2115 15.106 17.648 14.696 18C13.13 19.344 10.89 20.001 8.00003 20.001C5.11003 20.001 2.87203 19.344 1.30903 18.001C0.899545 17.6489 0.570948 17.2125 0.345716 16.7216C0.120484 16.2308 0.00393062 15.6971 0.00402838 15.157V14.25C0.00402838 13.6533 0.241081 13.081 0.663038 12.659C1.08499 12.2371 1.65729 12 2.25403 12H13.753Z" fill="url(#paint0_radial_1572_467)"/>
<path d="M13.753 12C14.0485 12 14.3411 12.0582 14.6141 12.1713C14.887 12.2843 15.1351 12.4501 15.344 12.659C15.553 12.8679 15.7187 13.116 15.8318 13.389C15.9448 13.6619 16.003 13.9545 16.003 14.25V15.155C16.003 15.6954 15.8862 16.2294 15.6606 16.7204C15.4351 17.2115 15.106 17.648 14.696 18C13.13 19.344 10.89 20.001 8.00003 20.001C5.11003 20.001 2.87203 19.344 1.30903 18.001C0.899545 17.6489 0.570948 17.2125 0.345716 16.7216C0.120484 16.2308 0.00393062 15.6971 0.00402838 15.157V14.25C0.00402838 13.6533 0.241081 13.081 0.663038 12.659C1.08499 12.2371 1.65729 12 2.25403 12H13.753Z" fill="url(#paint1_linear_1572_467)"/>
<path d="M8.00004 0.5L7.89804 0.507C7.71849 0.531648 7.55393 0.620481 7.43481 0.757069C7.31568 0.893658 7.25005 1.06876 7.25004 1.25L7.24304 3H8.74304L8.75004 1.25L8.74304 1.148C8.71839 0.968446 8.62956 0.803891 8.49297 0.684767C8.35638 0.565643 8.18128 0.500008 8.00004 0.5Z" fill="url(#paint2_linear_1572_467)"/>
<path d="M14 4.25C14 3.65326 13.7629 3.08097 13.341 2.65901C12.919 2.23705 12.3467 2 11.75 2H4.25C3.65326 2 3.08097 2.23705 2.65901 2.65901C2.23705 3.08097 2 3.65326 2 4.25V7.75C2 8.34674 2.23705 8.91903 2.65901 9.34099C3.08097 9.76295 3.65326 10 4.25 10H11.75C12.3467 10 12.919 9.76295 13.341 9.34099C13.7629 8.91903 14 8.34674 14 7.75V4.25Z" fill="url(#paint3_radial_1572_467)"/>
<path d="M10.242 4.50001C10.075 4.49529 9.90864 4.52411 9.75292 4.58478C9.59719 4.64544 9.45521 4.73672 9.33537 4.85322C9.21553 4.96971 9.12027 5.10905 9.05523 5.263C8.99018 5.41695 8.95667 5.58238 8.95667 5.74951C8.95667 5.91664 8.99018 6.08207 9.05523 6.23602C9.12027 6.38997 9.21553 6.52931 9.33537 6.64581C9.45521 6.7623 9.59719 6.85358 9.75292 6.91425C9.90864 6.97492 10.075 7.00374 10.242 6.99901C10.5673 6.98981 10.8761 6.85413 11.103 6.62081C11.3298 6.38748 11.4567 6.07491 11.4567 5.74951C11.4567 5.42411 11.3298 5.11154 11.103 4.87822C10.8761 4.64489 10.5673 4.50921 10.242 4.50001Z" fill="url(#paint4_linear_1572_467)"/>
<path d="M5.75007 4.50001C5.58301 4.49529 5.4167 4.52411 5.26097 4.58478C5.10524 4.64544 4.96326 4.73672 4.84343 4.85322C4.72359 4.96971 4.62833 5.10905 4.56328 5.263C4.49824 5.41695 4.46472 5.58238 4.46472 5.74951C4.46472 5.91664 4.49824 6.08207 4.56328 6.23602C4.62833 6.38997 4.72359 6.52931 4.84343 6.64581C4.96326 6.7623 5.10524 6.85358 5.26097 6.91425C5.4167 6.97492 5.58301 7.00374 5.75007 6.99901C6.07534 6.98981 6.3842 6.85413 6.61102 6.62081C6.83783 6.38748 6.96472 6.07491 6.96472 5.74951C6.96472 5.42411 6.83783 5.11154 6.61102 4.87822C6.3842 4.64489 6.07534 4.50921 5.75007 4.50001Z" fill="url(#paint5_linear_1572_467)"/>
<defs>
<radialGradient id="paint0_radial_1572_467" cx="0" cy="0" r="1" gradientUnits="userSpaceOnUse" gradientTransform="translate(-3.68897 9.538) rotate(30.4076) scale(22.2527 35.445)">
<stop stop-color="#BFE7FF"/>
<stop offset="0.535" stop-color="#3DB3FB"/>
<stop offset="1" stop-color="#05649E"/>
</radialGradient>
<linearGradient id="paint1_linear_1572_467" x1="8.00303" y1="11.047" x2="11.623" y2="24.573" gradientUnits="userSpaceOnUse">
<stop stop-color="#3DB3FB" stop-opacity="0.25"/>
<stop offset="1" stop-color="#3DB3FB"/>
</linearGradient>
<linearGradient id="paint2_linear_1572_467" x1="7.20904" y1="-2.63401e-08" x2="8.98404" y2="1.871" gradientUnits="userSpaceOnUse">
<stop stop-color="#3DB3FB"/>
<stop offset="1" stop-color="#0283D1"/>
</linearGradient>
<radialGradient id="paint3_radial_1572_467" cx="0" cy="0" r="1" gradientUnits="userSpaceOnUse" gradientTransform="translate(-2.2 -1.429) rotate(37.6946) scale(19.9992 37.7806)">
<stop stop-color="#B8DFF7"/>
<stop offset="0.535" stop-color="#3DB3FB"/>
<stop offset="1" stop-color="#1080C5"/>
</radialGradient>
<linearGradient id="paint4_linear_1572_467" x1="9.58502" y1="4.59601" x2="11.479" y2="7.86501" gradientUnits="userSpaceOnUse">
<stop stop-color="#FDFDFD"/>
<stop offset="1" stop-color="#F9DCFA"/>
</linearGradient>
<linearGradient id="paint5_linear_1572_467" x1="5.09207" y1="4.59601" x2="6.98607" y2="7.86501" gradientUnits="userSpaceOnUse">
<stop stop-color="#FDFDFD"/>
<stop offset="1" stop-color="#F9DCFA"/>
</linearGradient>
</defs>
</svg>
