<svg width="24" height="18" viewBox="0 0 24 18" fill="none" xmlns="http://www.w3.org/2000/svg">
<path fill-rule="evenodd" clip-rule="evenodd" d="M0 2.143C0 1.68834 0.180612 1.2523 0.502103 0.930813C0.823594 0.609323 1.25963 0.428711 1.71429 0.428711H22.2857C22.7404 0.428711 23.1764 0.609323 23.4979 0.930813C23.8194 1.2523 24 1.68834 24 2.143V15.8573C24 16.3119 23.8194 16.748 23.4979 17.0695C23.1764 17.391 22.7404 17.5716 22.2857 17.5716H1.71429C1.25963 17.5716 0.823594 17.391 0.502103 17.0695C0.180612 16.748 0 16.3119 0 15.8573V2.143ZM10.2857 6.42871C10.2857 7.1107 10.0148 7.76475 9.53256 8.24699C9.05032 8.72922 8.39627 9.00014 7.71429 9.00014C7.0323 9.00014 6.37825 8.72922 5.89601 8.24699C5.41377 7.76475 5.14286 7.1107 5.14286 6.42871C5.14286 5.74673 5.41377 5.09267 5.89601 4.61044C6.37825 4.1282 7.0323 3.85728 7.71429 3.85728C8.39627 3.85728 9.05032 4.1282 9.53256 4.61044C10.0148 5.09267 10.2857 5.74673 10.2857 6.42871ZM2.652 12.9464C3.29449 12.2432 4.07646 11.6815 4.94805 11.2972C5.81964 10.9129 6.76174 10.7144 7.71429 10.7144C8.66683 10.7144 9.60893 10.9129 10.4805 11.2972C11.3521 11.6815 12.1341 12.2432 12.7766 12.9464C13.2223 13.4333 12.828 14.143 12.168 14.143H3.26057C2.60057 14.143 2.20629 13.4333 2.652 12.9464ZM15.2143 6.42871C15.2143 5.83728 15.6943 5.35728 16.2857 5.35728H19.7143C19.9984 5.35728 20.271 5.47016 20.4719 5.6711C20.6728 5.87203 20.7857 6.14455 20.7857 6.42871C20.7857 6.71287 20.6728 6.98539 20.4719 7.18633C20.271 7.38726 19.9984 7.50014 19.7143 7.50014H16.2857C16.0016 7.50014 15.729 7.38726 15.5281 7.18633C15.3272 6.98539 15.2143 6.71287 15.2143 6.42871ZM16.2857 10.5001C16.0016 10.5001 15.729 10.613 15.5281 10.814C15.3272 11.0149 15.2143 11.2874 15.2143 11.5716C15.2143 11.8557 15.3272 12.1283 15.5281 12.3292C15.729 12.5301 16.0016 12.643 16.2857 12.643H19.7143C19.9984 12.643 20.271 12.5301 20.4719 12.3292C20.6728 12.1283 20.7857 11.8557 20.7857 11.5716C20.7857 11.2874 20.6728 11.0149 20.4719 10.814C20.271 10.613 19.9984 10.5001 19.7143 10.5001H16.2857Z" fill="#3DB3FB"/>
</svg>
