<svg width="16" height="13" viewBox="0 0 16 13" fill="none" xmlns="http://www.w3.org/2000/svg">
<g clip-path="url(#clip0_983_600)">
<path d="M5.09723 6C5.79395 6 6.46213 5.65759 6.95479 5.0481C7.44745 4.4386 7.72422 3.61195 7.72422 2.75C7.72422 1.88805 7.44745 1.0614 6.95479 0.451903C6.46213 -0.15759 5.79395 -0.5 5.09723 -0.5C4.40051 -0.5 3.73232 -0.15759 3.23967 0.451903C2.74701 1.0614 2.47024 1.88805 2.47024 2.75C2.47024 3.61195 2.74701 4.4386 3.23967 5.0481C3.73232 5.65759 4.40051 6 5.09723 6ZM4.15931 7.21875C2.13776 7.21875 0.5 9.24492 0.5 11.7459C0.5 12.1623 0.77296 12.5 1.10954 12.5H9.08491C9.29015 12.5 9.47075 12.3756 9.58158 12.1826L7.54566 9.66387C7.23987 9.28555 7.06747 8.77266 7.06747 8.23945V7.40156C6.74115 7.28223 6.3943 7.21875 6.03515 7.21875H4.15931ZM8.38096 5.1875C8.0177 5.1875 7.72422 5.55059 7.72422 6V8.0998C7.72422 8.53145 7.86172 8.94531 8.108 9.25L10.3122 11.9744C10.696 12.4492 11.3199 12.4492 11.7057 11.9744L13.2122 10.1107C13.5959 9.63594 13.5959 8.86406 13.2122 8.38672L11.008 5.6623C10.7617 5.35762 10.4271 5.1875 10.0782 5.1875H8.38096ZM8.87352 7.21875C8.87352 7.05713 8.92542 6.90214 9.01779 6.78786C9.11016 6.67358 9.23545 6.60938 9.36608 6.60938C9.49672 6.60938 9.622 6.67358 9.71438 6.78786C9.80675 6.90214 9.85864 7.05713 9.85864 7.21875C9.85864 7.38037 9.80675 7.53536 9.71438 7.64964C9.622 7.76392 9.49672 7.82812 9.36608 7.82812C9.23545 7.82812 9.11016 7.76392 9.01779 7.64964C8.92542 7.53536 8.87352 7.38037 8.87352 7.21875Z" fill="#3E3F5E"/>
</g>
<defs>
<clipPath id="clip0_983_600">
<rect width="16" height="13" fill="white"/>
</clipPath>
</defs>
</svg>
