<svg width="18" height="18" viewBox="0 0 18 18" fill="none" xmlns="http://www.w3.org/2000/svg">
<path d="M17.25 7.5C17.25 7.10217 17.092 6.72064 16.8107 6.43934C16.5294 6.15804 16.1478 6 15.75 6H11.01L11.73 2.5725C11.745 2.4975 11.7525 2.415 11.7525 2.3325C11.7525 2.025 11.625 1.74 11.4225 1.5375L10.6275 0.75L5.6925 5.685C5.415 5.9625 5.25 6.3375 5.25 6.75V14.25C5.25 14.6478 5.40804 15.0294 5.68934 15.3107C5.97064 15.592 6.35218 15.75 6.75 15.75H13.5C14.1225 15.75 14.655 15.375 14.88 14.835L17.145 9.5475C17.2125 9.375 17.25 9.195 17.25 9V7.5ZM0.75 15.75H3.75V6.75H0.75V15.75Z" fill="#3DB3FB"/>
</svg>
