<svg width="24" height="24" viewBox="0 0 24 24" fill="none" xmlns="http://www.w3.org/2000/svg">
<path d="M17.76 10.8C17.88 10.44 18 10.08 18 9.6C18 6.96 15.84 4.8 13.2 4.8C11.4 4.8 9.72001 5.88 9.00001 7.44C8.64001 7.32 8.16001 7.2 7.80001 7.2C6.12001 7.2 4.80001 8.52 4.80001 10.2C4.80001 10.44 4.80001 10.68 4.92001 10.8C2.76001 11.16 1.20001 12.84 1.20001 15C1.20001 17.28 3.12001 19.2 5.40001 19.2H17.4C19.68 19.2 21.6 17.28 21.6 15C21.6 12.84 19.92 11.04 17.76 10.8ZM10.2 17.88L6.36001 14.04L8.04001 12.36L10.2 14.52L14.76 9.96L16.44 11.64L10.2 17.88Z" fill="black"/>
</svg>
