<svg width="20" height="18" viewBox="0 0 20 18" fill="none" xmlns="http://www.w3.org/2000/svg">
<path d="M12.5 1.5C12.5 1.10218 12.658 0.720644 12.9393 0.43934C13.2206 0.158035 13.6022 0 14 0H18.5C18.8978 0 19.2794 0.158035 19.5607 0.43934C19.842 0.720644 20 1.10218 20 1.5V14.25C20 15.2446 19.6049 16.1984 18.9017 16.9017C18.1984 17.6049 17.2446 18 16.25 18H2C1.60218 18 1.22064 17.842 0.93934 17.5607C0.658035 17.2794 0.5 16.8978 0.5 16.5V12C0.5 11.6022 0.658035 11.2206 0.93934 10.9393C1.22064 10.658 1.60218 10.5 2 10.5H6.5V7.5C6.5 7.10218 6.65804 6.72064 6.93934 6.43934C7.22064 6.15804 7.60218 6 8 6H12.5V1.5Z" fill="#3E3F5E"/>
</svg>
