<svg width="16" height="16" viewBox="0 0 16 16" fill="none" xmlns="http://www.w3.org/2000/svg">
<path d="M4.33333 7.33301L8 1.33301L11.6667 7.33301H4.33333ZM11.6667 14.6663C10.8333 14.6663 10.1251 14.3748 9.542 13.7917C8.95889 13.2086 8.66711 12.5001 8.66667 11.6663C8.66622 10.8326 8.958 10.1243 9.542 9.54167C10.126 8.95901 10.8342 8.66723 11.6667 8.66634C12.4991 8.66545 13.2076 8.95723 13.792 9.54167C14.3764 10.1261 14.668 10.8343 14.6667 11.6663C14.6653 12.4983 14.3738 13.2068 13.792 13.7917C13.2102 14.3766 12.5018 14.6681 11.6667 14.6663ZM2 14.333V8.99967H7.33333V14.333H2Z" fill="#3E3F5E"/>
</svg>
