<svg width="29" height="19" viewBox="0 0 29 19" fill="none" xmlns="http://www.w3.org/2000/svg">
<path d="M0.15625 12.7484C0.264062 12.5516 0.4 12.5188 0.610938 12.6313C1.09844 12.8938 1.57656 13.1656 2.07344 13.4141C3.97505 14.3623 5.97863 15.0904 8.04531 15.5844C9.02253 15.8201 10.0114 16.0047 11.0078 16.1375C12.4835 16.3359 13.9725 16.4174 15.4609 16.3813C16.2766 16.3625 17.0922 16.2969 17.9031 16.2031C20.5361 15.8962 23.1128 15.2208 25.5578 14.1969C25.6938 14.1406 25.8344 14.1031 25.9844 14.1406C26.2984 14.225 26.4062 14.5625 26.1766 14.7922C26.0369 14.9206 25.8863 15.0367 25.7266 15.1391C24.2875 16.1281 22.7172 16.8453 21.0578 17.3844C19.9088 17.7547 18.7314 18.0306 17.5375 18.2094C16.7117 18.3359 15.8789 18.411 15.0438 18.4344C15.0044 18.4367 14.9653 18.4414 14.9266 18.4484H13.9375C13.8988 18.4414 13.8596 18.4367 13.8203 18.4344C13.6516 18.425 13.4828 18.4203 13.3187 18.4156C12.527 18.3798 11.7381 18.2968 10.9562 18.1672C9.67239 17.9579 8.41073 17.63 7.1875 17.1875C4.67122 16.2801 2.35381 14.8954 0.3625 13.1094C0.278125 13.0344 0.221875 12.9313 0.15625 12.8422V12.7484ZM7.5625 0.551562L7.36094 0.579687C6.71637 0.659204 6.10303 0.902927 5.57969 1.2875C5.46719 1.36719 5.36406 1.45156 5.24687 1.54062C5.23694 1.51997 5.2306 1.49778 5.22812 1.475C5.20937 1.34844 5.19063 1.21719 5.16719 1.09062C5.13438 0.875 5.02656 0.78125 4.81094 0.78125H4.27188C3.94844 0.78125 3.8875 0.842187 3.8875 1.16562V10.9766C3.8875 11.0234 3.8875 11.0703 3.89219 11.1172C3.90156 11.2578 3.98594 11.3469 4.12187 11.3516C4.45 11.3563 4.78281 11.3563 5.11094 11.3516C5.24687 11.3516 5.33125 11.2578 5.34531 11.1172C5.35 11.0703 5.35 11.0234 5.35 10.9766V7.58281C5.40156 7.625 5.42969 7.64844 5.45312 7.67188C6.29219 8.37031 7.25781 8.6 8.3125 8.39375C9.26875 8.20625 9.93437 7.62031 10.3656 6.75781C10.6938 6.10625 10.8297 5.4125 10.8484 4.69063C10.8719 3.88906 10.7922 3.10156 10.4688 2.35625C10.0703 1.4375 9.40938 0.832812 8.41094 0.626562C8.26094 0.59375 8.10625 0.579687 7.95156 0.55625C7.82031 0.551562 7.69375 0.551562 7.5625 0.551562ZM5.34062 2.51563C5.33795 2.48495 5.34402 2.45414 5.35812 2.42677C5.37222 2.3994 5.39378 2.37657 5.42031 2.36094C6.0625 1.91562 6.77031 1.68125 7.55781 1.74219C8.25625 1.79375 8.82812 2.13594 9.12812 2.95625C9.31094 3.45781 9.35781 3.97813 9.35781 4.50312C9.35781 4.99062 9.32031 5.46875 9.17031 5.9375C8.85156 6.93594 8.12031 7.31563 7.17344 7.27344C6.51719 7.24531 5.94531 6.99219 5.42031 6.62188C5.39412 6.60588 5.37284 6.58299 5.35878 6.5557C5.34473 6.52842 5.33845 6.4978 5.34062 6.46719C5.34531 5.80625 5.34062 5.15 5.34062 4.48906C5.34062 3.82813 5.34531 3.17656 5.34062 2.51563ZM14.9828 0.551562C14.9359 0.55625 14.8891 0.565625 14.8469 0.570313C14.3901 0.58958 13.9363 0.653955 13.4922 0.7625C13.2063 0.8375 12.9297 0.940625 12.6531 1.03438C12.4844 1.09063 12.4 1.2125 12.4047 1.39531C12.4094 1.55 12.4 1.70469 12.4047 1.85938C12.4094 2.08438 12.5031 2.14531 12.7234 2.08906C13.0891 1.99531 13.4547 1.89219 13.825 1.82187C14.4016 1.71406 14.9828 1.66719 15.5687 1.75625C15.8734 1.80313 16.1594 1.89219 16.3563 2.15C16.5297 2.375 16.5953 2.64219 16.6047 2.91875C16.6187 3.30781 16.6141 3.69688 16.6188 4.08594C16.6176 4.10805 16.6144 4.13001 16.6094 4.15156C16.5859 4.14687 16.5672 4.15156 16.5484 4.14688C16.0563 4.02556 15.5543 3.94869 15.0484 3.91719C14.5188 3.88906 13.9937 3.92188 13.4875 4.1C12.8828 4.31094 12.3953 4.67656 12.1094 5.26719C11.8891 5.72656 11.8563 6.21406 11.9266 6.70625C12.0203 7.3625 12.3484 7.86875 12.9297 8.19219C13.4875 8.50156 14.0922 8.53906 14.7062 8.44531C15.4141 8.3375 16.0422 8.0375 16.5953 7.58281C16.6179 7.56241 16.6432 7.54507 16.6703 7.53125C16.6984 7.70938 16.7219 7.87813 16.7547 8.04688C16.7828 8.19219 16.8719 8.28594 17.0078 8.29063C17.2609 8.29531 17.5187 8.29531 17.7719 8.29063C17.8306 8.29016 17.8869 8.26695 17.9288 8.22586C17.9708 8.18477 17.9952 8.12902 17.9969 8.07031C18.0008 8.02668 18.0024 7.98287 18.0016 7.93906V2.97031C18.0038 2.76794 17.9897 2.56572 17.9594 2.36563C17.8703 1.76094 17.6125 1.26406 17.0687 0.940625C16.7547 0.753125 16.4078 0.659375 16.0469 0.607813C15.8781 0.584375 15.7094 0.570313 15.5406 0.546875C15.3578 0.551563 15.1703 0.551562 14.9828 0.551562ZM16.6234 6.5375C16.6252 6.56507 16.6196 6.59261 16.6073 6.61731C16.5949 6.64202 16.5762 6.663 16.5531 6.67813C16.0281 7.05781 15.4516 7.31094 14.8 7.37656C14.5328 7.40469 14.2656 7.39531 14.0125 7.29219C13.8734 7.24133 13.7483 7.15836 13.6473 7.05003C13.5463 6.9417 13.4723 6.81107 13.4313 6.66875C13.3383 6.37299 13.3367 6.05608 13.4266 5.75938C13.5438 5.37031 13.8203 5.15 14.1953 5.02813C14.5717 4.91459 14.9673 4.87949 15.3578 4.925C15.7516 4.95781 16.1359 5.03281 16.5297 5.08438C16.6047 5.09375 16.6281 5.13125 16.6281 5.20625C16.6234 5.43125 16.6281 5.65156 16.6281 5.87656C16.6281 6.10156 16.6187 6.31719 16.6234 6.5375ZM28.8063 12.6031C28.7594 12.3688 28.5812 12.2797 28.3797 12.2141C28.0602 12.1136 27.7296 12.0522 27.3953 12.0313C26.7816 11.9788 26.1636 12.0088 25.5578 12.1203C24.8875 12.2469 24.25 12.4625 23.6828 12.8516C23.6153 12.895 23.5565 12.9507 23.5094 13.0156C23.4929 13.0436 23.4824 13.0747 23.4783 13.107C23.4743 13.1392 23.4769 13.1719 23.4859 13.2031C23.5047 13.2734 23.5844 13.2922 23.6547 13.2875C23.6891 13.2883 23.7236 13.2867 23.7578 13.2828C24.1234 13.2453 24.4844 13.2031 24.85 13.1656C25.3844 13.1141 25.9234 13.0813 26.4578 13.1234C26.6865 13.1424 26.9127 13.1848 27.1328 13.25C27.3719 13.3156 27.4797 13.4938 27.4891 13.7375C27.5078 14.1125 27.4234 14.4734 27.325 14.8297C27.1328 15.5516 26.8562 16.25 26.5844 16.9438C26.5646 16.9891 26.5489 17.0362 26.5375 17.0844C26.5141 17.2203 26.5938 17.3094 26.7297 17.2766C26.8136 17.2577 26.8911 17.2173 26.9547 17.1594C27.1662 16.9628 27.365 16.753 27.55 16.5313C28.15 15.7625 28.5016 14.8766 28.7078 13.925C28.7453 13.7563 28.7734 13.5828 28.8063 13.4141V12.6031ZM22.6141 6.82813C22.0094 5.15469 21.4047 3.47969 20.8 1.80313C20.7062 1.53594 20.6031 1.27344 20.5047 1.01094C20.4531 0.875 20.3547 0.785937 20.2047 0.785937C19.8484 0.78125 19.4922 0.776563 19.1312 0.78125C19.0141 0.78125 18.9578 0.875 18.9813 0.992188C19.0038 1.08958 19.0336 1.18515 19.0703 1.27812C19.9891 3.55156 20.9125 5.825 21.8406 8.09844C21.9203 8.29063 21.9391 8.45469 21.85 8.65156C21.6953 8.99375 21.5734 9.35469 21.4141 9.69688C21.2734 10.0016 21.0391 10.2313 20.7016 10.3203C20.4662 10.3819 20.2214 10.3993 19.9797 10.3719C19.8625 10.3625 19.7453 10.3344 19.6281 10.325C19.4688 10.3156 19.3891 10.3859 19.3844 10.55C19.3797 10.7063 19.3797 10.8609 19.3844 11.0141C19.3891 11.2719 19.4781 11.3891 19.7313 11.4313C19.9924 11.4833 20.2573 11.5146 20.5234 11.525C21.325 11.5438 21.9625 11.2203 22.375 10.5219C22.541 10.2461 22.6852 9.95769 22.8063 9.65938C23.9172 6.85625 25.0203 4.05 26.1156 1.24063C26.1498 1.15764 26.175 1.0712 26.1906 0.982813C26.2094 0.851563 26.1484 0.776563 26.0172 0.776563C25.7078 0.771875 25.3937 0.776563 25.0844 0.776563C25.0056 0.771053 24.9273 0.79206 24.8619 0.836236C24.7965 0.880412 24.7477 0.945214 24.7234 1.02031C24.7 1.08594 24.6719 1.14687 24.6484 1.2125L23.0172 5.9C22.9 6.2375 22.7781 6.57969 22.6562 6.94063C22.6375 6.88906 22.6281 6.86094 22.6141 6.82813Z" fill="#3E3F5E"/>
</svg>
