<svg width="18" height="18" viewBox="0 0 18 18" fill="none" xmlns="http://www.w3.org/2000/svg">
<path d="M16.23 12.2598L13.69 11.9698C13.3913 11.9347 13.0886 11.9678 12.8045 12.0665C12.5205 12.1652 12.2625 12.327 12.05 12.5398L10.21 14.3798C7.37137 12.9357 5.06404 10.6284 3.61998 7.78977L5.46998 5.93977C5.89998 5.50977 6.10998 4.90977 6.03998 4.29977L5.74998 1.77977C5.6935 1.29186 5.45944 0.841791 5.09244 0.515361C4.72544 0.188932 4.25115 0.00896555 3.75998 0.0097683H2.02998C0.89998 0.0097683 -0.0400204 0.949768 0.0299796 2.07977C0.55998 10.6198 7.38998 17.4398 15.92 17.9698C17.05 18.0398 17.99 17.0998 17.99 15.9698V14.2398C18 13.2298 17.24 12.3798 16.23 12.2598Z" fill="#3DB3FB"/>
</svg>
