<svg width="19" height="20" viewBox="0 0 19 20" fill="none" xmlns="http://www.w3.org/2000/svg">
<path d="M3.5 9L9 0L14.5 9H3.5ZM14.5 20C13.25 20 12.1877 19.5627 11.313 18.688C10.4383 17.8133 10.0007 16.7507 10 15.5C9.99933 14.2493 10.437 13.187 11.313 12.313C12.189 11.439 13.2513 11.0013 14.5 11C15.7487 10.9987 16.8113 11.4363 17.688 12.313C18.5647 13.1897 19.002 14.252 19 15.5C18.998 16.748 18.5607 17.8107 17.688 18.688C16.8153 19.5653 15.7527 20.0027 14.5 20ZM0 19.5V11.5H8V19.5H0Z" fill="#3DB3FB"/>
</svg>
