<svg width="20" height="20" viewBox="0 0 20 20" fill="none" xmlns="http://www.w3.org/2000/svg">
<path d="M10 20C8.61667 20 7.31667 19.7373 6.1 19.212C4.88334 18.6867 3.825 17.9743 2.925 17.075C2.025 16.1757 1.31267 15.1173 0.788001 13.9C0.263335 12.6827 0.000667933 11.3827 1.26582e-06 10C-0.000665401 8.61733 0.262001 7.31733 0.788001 6.1C1.314 4.88267 2.02633 3.82433 2.925 2.925C3.82367 2.02567 4.882 1.31333 6.1 0.788C7.318 0.262667 8.618 0 10 0C11.382 0 12.682 0.262667 13.9 0.788C15.118 1.31333 16.1763 2.02567 17.075 2.925C17.9737 3.82433 18.6863 4.88267 19.213 6.1C19.7397 7.31733 20.002 8.61733 20 10C19.998 11.3827 19.7353 12.6827 19.212 13.9C18.6887 15.1173 17.9763 16.1757 17.075 17.075C16.1737 17.9743 15.1153 18.687 13.9 19.213C12.6847 19.739 11.3847 20.0013 10 20ZM9 17.95V16C8.45 16 7.97933 15.8043 7.588 15.413C7.19667 15.0217 7.00067 14.5507 7 14V13L2.2 8.2C2.15 8.5 2.10433 8.8 2.063 9.1C2.02167 9.4 2.00067 9.7 2 10C2 12.0167 2.66267 13.7833 3.988 15.3C5.31333 16.8167 6.984 17.7 9 17.95ZM15.9 15.4C16.5833 14.65 17.1043 13.8127 17.463 12.888C17.8217 11.9633 18.0007 11.0007 18 10C18 8.36667 17.546 6.875 16.638 5.525C15.73 4.175 14.5173 3.2 13 2.6V3C13 3.55 12.8043 4.021 12.413 4.413C12.0217 4.805 11.5507 5.00067 11 5H9V7C9 7.28333 8.904 7.521 8.712 7.713C8.52 7.905 8.28267 8.00067 8 8H6V10H12C12.2833 10 12.521 10.096 12.713 10.288C12.905 10.48 13.0007 10.7173 13 11V14H14C14.4333 14 14.825 14.1293 15.175 14.388C15.525 14.6467 15.7667 14.984 15.9 15.4Z" fill="#3DB3FB"/>
</svg>
