<svg width="17" height="20" viewBox="0 0 17 20" fill="none" xmlns="http://www.w3.org/2000/svg">
<path d="M7.14599 8.4375L10.271 11.5625M10.271 8.4375L7.14599 11.5625" stroke="#EF3E36" stroke-linecap="round" stroke-linejoin="round"/>
<path d="M3.49999 0.625H14.9585C15.2347 0.625 15.4996 0.734729 15.6949 0.930048C15.8903 1.12537 16 1.39028 16 1.6665V18.3335C16 18.6097 15.8903 18.8746 15.6949 19.07C15.4996 19.2653 15.2347 19.375 14.9585 19.375H2.45849C2.18227 19.375 1.91736 19.2653 1.72204 19.07C1.52672 18.8746 1.41699 18.6097 1.41699 18.3335V2.7085M3.49999 0.625L1.41699 2.7085M3.49999 0.625V2.7085H1.41699" stroke="#EF3E36" stroke-linecap="round" stroke-linejoin="round"/>
</svg>
