<svg width="19" height="19" viewBox="0 0 19 19" fill="none" xmlns="http://www.w3.org/2000/svg">
<path d="M0.5 17.5H2.5V11.5H0.5V17.5ZM9.96 18.5L7.03 17.86L4.1 17.17C3.93041 17.1369 3.77805 17.0448 3.67 16.91C3.55743 16.7796 3.4969 16.6122 3.5 16.44V12.44C3.50283 12.2688 3.56265 12.1034 3.67 11.97C3.78169 11.8394 3.93246 11.7482 4.1 11.71L8.88 11.12L13.67 10.52L13.82 11.08L13.97 11.63C13.9727 11.8144 13.9204 11.9954 13.82 12.15C13.7281 12.3117 13.5884 12.441 13.42 12.52L11.42 13.02L9.42 13.52L11.04 14.18L12.67 14.83L14.94 14.19L17.15 13.5C17.3464 13.4503 17.5544 13.479 17.73 13.58C17.8184 13.6278 17.8961 13.6933 17.958 13.7724C18.02 13.8516 18.0649 13.9427 18.09 14.04L18.28 14.81L18.48 15.57C18.5254 15.7601 18.4968 15.9602 18.4 16.13C18.2971 16.3013 18.1325 16.4265 17.94 16.48L14.31 17.48L10.68 18.48C10.5605 18.4955 10.4395 18.4955 10.32 18.48C10.2019 18.5064 10.0803 18.5132 9.96 18.5ZM6.5 0.5L4.5 2.5L2.5 4.5L4.5 6.5L6.5 8.5L7.2 7.8L7.9 7.1L6.6 5.8L5.3 4.5L6.6 3.2L7.9 1.9L7.2 1.2L6.5 0.5ZM12.5 0.5L11.8 1.2L11.1 1.9L12.4 3.2L13.7 4.5L12.4 5.8L11.1 7.1L11.8 7.8L12.5 8.5L14.5 6.5L16.5 4.5L14.5 2.5L12.5 0.5Z" fill="#3E3F5E"/>
</svg>
